<svg width="32" height="32" viewBox="0 0 32 32" fill="none" xmlns="http://www.w3.org/2000/svg">
<g opacity="0.7">
<path d="M14.6667 22.6667H17.3334V17.3333H22.6667V14.6667H17.3334V9.33333H14.6667V14.6667H9.33342V17.3333H14.6667V22.6667ZM16.0001 29.3333C14.1556 29.3333 12.4223 28.9889 10.8001 28.3C9.17786 27.5889 7.76675 26.6333 6.56675 25.4333C5.36675 24.2333 4.41119 22.8222 3.70008 21.2C3.01119 19.5778 2.66675 17.8444 2.66675 16C2.66675 14.1556 3.01119 12.4222 3.70008 10.8C4.41119 9.17777 5.36675 7.76666 6.56675 6.56666C7.76675 5.36666 9.17786 4.42222 10.8001 3.73333C12.4223 3.02222 14.1556 2.66666 16.0001 2.66666C17.8445 2.66666 19.5779 3.02222 21.2001 3.73333C22.8223 4.42222 24.2334 5.36666 25.4334 6.56666C26.6334 7.76666 27.5779 9.17777 28.2667 10.8C28.9779 12.4222 29.3334 14.1556 29.3334 16C29.3334 17.8444 28.9779 19.5778 28.2667 21.2C27.5779 22.8222 26.6334 24.2333 25.4334 25.4333C24.2334 26.6333 22.8223 27.5889 21.2001 28.3C19.5779 28.9889 17.8445 29.3333 16.0001 29.3333ZM16.0001 26.6667C18.9779 26.6667 21.5001 25.6333 23.5668 23.5667C25.6334 21.5 26.6667 18.9778 26.6667 16C26.6667 13.0222 25.6334 10.5 23.5668 8.43333C21.5001 6.36666 18.9779 5.33333 16.0001 5.33333C13.0223 5.33333 10.5001 6.36666 8.43341 8.43333C6.36675 10.5 5.33341 13.0222 5.33341 16C5.33341 18.9778 6.36675 21.5 8.43341 23.5667C10.5001 25.6333 13.0223 26.6667 16.0001 26.6667Z" fill="white"/>
</g>
</svg>
