<svg width="32" height="32" viewBox="0 0 32 32" fill="none" xmlns="http://www.w3.org/2000/svg">
<path d="M5.33341 24H26.6667V13.3333H17.3334V8H5.33341V24ZM5.33341 26.6667C4.60008 26.6667 3.9723 26.4056 3.45008 25.8833C2.92786 25.3611 2.66675 24.7333 2.66675 24V8C2.66675 7.26667 2.92786 6.63889 3.45008 6.11667C3.9723 5.59444 4.60008 5.33333 5.33341 5.33333H26.6667C27.4001 5.33333 28.0279 5.59444 28.5501 6.11667C29.0723 6.63889 29.3334 7.26667 29.3334 8V24C29.3334 24.7333 29.0723 25.3611 28.5501 25.8833C28.0279 26.4056 27.4001 26.6667 26.6667 26.6667H5.33341Z" fill="white"/>
</svg>
