<svg width="32" height="32" viewBox="0 0 32 32" fill="none" xmlns="http://www.w3.org/2000/svg">
<path d="M12.1201 12C12.4336 11.1089 13.0523 10.3575 13.8667 9.87885C14.6811 9.40022 15.6386 9.22526 16.5697 9.38495C17.5007 9.54465 18.3452 10.0287 18.9535 10.7514C19.5619 11.474 19.8948 12.3887 19.8934 13.3333C19.8934 16 15.8934 17.3333 15.8934 17.3333M16.0001 22.6667H16.0134M29.3334 16C29.3334 23.3638 23.3639 29.3333 16.0001 29.3333C8.63628 29.3333 2.66675 23.3638 2.66675 16C2.66675 8.63621 8.63628 2.66667 16.0001 2.66667C23.3639 2.66667 29.3334 8.63621 29.3334 16Z" stroke="white" stroke-width="3" stroke-linecap="round" stroke-linejoin="round"/>
</svg>
